<svg width="128" height="84" viewBox="0 0 128 84" fill="none" xmlns="http://www.w3.org/2000/svg">
<rect width="128" height="84" rx="16" fill="white"/>
<g clip-path="url(#clip0_304_459)">
<path d="M84.2505 19.8506L80.4744 17.747L82.3606 16.6923L84.2505 19.8506ZM85.3678 15.0193V19.219L83.4871 16.072L85.3678 15.0193ZM84.0735 20.6514L86.1809 19.4784V12.707L77.9983 17.2676" fill="#8D7249"/>
<path d="M79.0178 25.6408V23.5372H82.792L79.0178 25.6408ZM79.0178 20.1854L82.7865 22.2871H79.0178V20.1854ZM83.4262 21.7382L77.3511 18.3525V27.4718L83.4262 24.0881" fill="#8D7249"/>
<path d="M91.2955 29.1258L89.4129 25.9769L93.178 28.0805L91.2955 29.1258ZM88.2828 30.8101V26.5992L90.1708 29.7555L88.2828 30.8101ZM87.4771 26.3454V33.1148L95.6615 28.5524L89.5844 25.1724" fill="#8D7249"/>
<path d="M94.64 22.2866H90.8713L94.64 20.1849V22.2866ZM94.64 25.6403L90.8621 23.5368H94.64V25.6403ZM90.2334 21.7396V24.0875L96.3086 27.4713V18.3501" fill="#8D7249"/>
<path d="M91.2955 16.6922L93.1834 17.7488L89.4074 19.8505L91.2955 16.6922ZM88.2846 15.0155L90.1708 16.0719L88.2846 19.2263V15.0155ZM95.6633 17.2675L87.4771 12.7051V19.4783L89.5844 20.6513" fill="#8D7249"/>
<path d="M82.3588 29.1277L80.4763 28.0805L84.2486 25.9788L82.3588 29.1277ZM85.3678 30.8063L83.4853 29.7555L85.3678 26.6067V30.8063ZM77.9983 28.5562L86.1791 33.1167V26.3454L84.0735 25.1724" fill="#8D7249"/>
<path d="M41.2042 51.6994C41.2042 54.9591 41.2042 57.7563 41.0198 59.2508C40.9074 60.2754 40.6861 61.0555 39.9394 61.1984C39.6075 61.2698 39.1632 61.3396 38.6045 61.3396C38.1584 61.3396 38.0108 61.4468 38.0108 61.6253C38.0108 61.8678 38.2708 61.9823 38.752 61.9823C40.2381 61.9823 42.5797 61.8752 43.4333 61.8752C44.4732 61.8752 46.8148 61.9823 49.267 61.9823C49.6744 61.9823 49.9695 61.8678 49.9695 61.6253C49.9695 61.4468 49.7851 61.3396 49.3776 61.3396C48.819 61.3396 48.0022 61.2703 47.4822 61.1984C46.3668 61.0556 46.1473 60.2754 46.0349 59.2809C45.8468 57.7564 45.8468 54.9591 45.8468 51.6994V37.1679L50.53 37.2734C53.8358 37.347 54.8389 38.3374 54.9108 39.2586L54.9478 39.6476C54.9865 40.1794 55.0622 40.3545 55.3572 40.3545C55.5821 40.3545 55.6559 40.1456 55.6928 39.7924C55.6928 38.8693 55.8053 36.4217 55.8053 35.681C55.8053 35.1492 55.7681 34.9329 55.5066 34.9329C55.2116 34.9329 54.3192 35.2899 51.9426 35.2899H37.2294C36.0051 35.2899 34.5928 35.2164 33.5142 35.113C32.5905 35.0395 32.2143 34.6846 31.9175 34.6846C31.6963 34.6846 31.5819 34.895 31.4713 35.3595C31.3976 35.6435 30.6914 38.8691 30.6914 39.435C30.6914 39.824 30.767 40.0009 31.0251 40.0009C31.2482 40.0009 31.3607 39.8597 31.4345 39.5762C31.5082 39.2943 31.6962 38.8693 32.0687 38.3373C32.6255 37.5553 33.5142 37.3785 35.6714 37.309L41.2045 37.1678" fill="#8D7249"/>
<path d="M61.9686 50.9645C61.8211 50.9645 61.7879 50.859 61.8211 50.7146L65.1565 41.9975C65.1915 41.8563 65.269 41.6778 65.3741 41.6778C65.4829 41.6778 65.5216 41.8563 65.5566 41.9975L68.8164 50.7484C68.853 50.8592 68.8164 50.9648 68.6377 50.9648L61.9686 50.9645ZM69.3252 52.7372C69.5061 52.7372 69.6147 52.8049 69.6848 52.9819L72.585 60.4995C72.7674 60.9226 72.5134 61.2439 72.2605 61.3153C71.8972 61.3473 71.7514 61.4209 71.7514 61.6329C71.7514 61.8813 72.1883 61.8812 72.8392 61.9244C75.7395 61.992 78.3852 61.9921 79.6906 61.9921C81.0329 61.9921 81.3592 61.9244 81.3592 61.6329C81.3592 61.383 81.1784 61.3473 80.8873 61.3473C80.4503 61.3473 79.9083 61.3153 79.3662 61.2061C78.6029 61.0291 77.5538 60.5331 76.1746 57.341C73.857 51.9571 68.0566 37.4952 67.1845 35.5438C66.8249 34.7298 66.6074 34.4121 66.2792 34.4121C65.916 34.4121 65.7021 34.8011 65.2688 35.8296L56.1699 58.0855C55.4397 59.862 54.7539 61.0613 53.0797 61.2757C52.7902 61.313 52.2832 61.3471 51.9569 61.3471C51.6674 61.3471 51.5217 61.4206 51.5217 61.6327C51.5217 61.9242 51.7411 61.9919 52.2094 61.9919C54.103 61.9919 56.0961 61.8885 56.4962 61.8885C57.619 61.8885 59.177 61.9919 60.3367 61.9919C60.7368 61.9919 60.9526 61.9242 60.9526 61.6327C60.9526 61.4201 60.8401 61.3471 60.4068 61.3471H59.8647C58.7419 61.3471 58.4156 60.8846 58.4156 60.2493C58.4156 59.8246 58.5962 58.9747 58.9594 58.0855L60.9138 53.0193C60.9876 52.805 61.0613 52.7374 61.242 52.7374" fill="#8D7249"/>
<path d="M85.0489 55.8012C85.0489 62.7568 85.0855 66.2966 82.3865 69.028C81.673 69.7386 81.1419 70.124 80.6773 70.3722C80.0763 70.6935 79.8975 70.8363 79.8975 71.0132C79.8975 71.1917 80.0412 71.2951 80.1834 71.2951C80.3605 71.2951 80.6407 71.2258 80.895 71.0846C81.6381 70.7313 82.2078 70.4437 82.6706 70.1617C86.0797 68.0731 87.9603 65.6255 88.7034 63.4636C89.4206 61.4746 89.5607 59.2018 89.5607 57.1829C89.5607 55.412 89.452 53.7126 89.452 52.1824V45.6291C89.452 40.2432 89.452 39.2507 89.522 38.1171C89.5957 36.8726 89.8758 36.2711 90.8384 36.0982C91.2665 36.0246 91.4783 35.9889 91.871 35.9889C92.2969 35.9889 92.5089 35.9175 92.5089 35.6713C92.5089 35.4251 92.2601 35.3516 91.7603 35.3516C90.3757 35.3516 88.1374 35.4571 87.2856 35.4571C86.3637 35.4571 84.1254 35.3516 82.2429 35.3516C81.7119 35.3516 81.4593 35.4251 81.4593 35.6713C81.4593 35.9175 81.673 35.9889 82.0659 35.9889C82.564 35.9889 83.1629 36.0262 83.4487 36.0982C84.6232 36.3428 84.9052 36.9102 84.9772 38.1171C85.0493 39.2507 85.0493 40.2432 85.0493 45.6291" fill="#8D7249"/>
</g>
<defs>
<clipPath id="clip0_304_459">
<rect width="67" height="60" fill="white" transform="translate(30 12)"/>
</clipPath>
</defs>
</svg>
