<svg width="396" height="217" viewBox="0 0 396 217" fill="none" xmlns="http://www.w3.org/2000/svg">
<g filter="url(#filter0_d_7106_2866)">
<rect x="6" y="4" width="380" height="201" rx="9" fill="white"/>
</g>
<path d="M215.376 77.84C223.536 81.92 228.216 88.64 228.216 97.64C228.216 113.48 214.056 123.44 192.696 123.44C171.456 123.44 157.416 113.48 157.416 97.64C157.416 88.64 162.096 81.92 170.136 77.84C163.896 74 160.416 68.12 160.416 60.56C160.416 45.8 173.616 36.56 192.696 36.56C212.016 36.56 225.216 45.8 225.216 60.56C225.216 68.12 221.616 74 215.376 77.84ZM192.696 50.84C184.896 50.84 179.736 54.8 179.736 61.4C179.736 67.76 184.776 71.72 192.696 71.72C200.736 71.72 205.896 67.76 205.896 61.4C205.896 54.8 200.616 50.84 192.696 50.84ZM192.696 109.16C202.416 109.16 208.536 104.48 208.536 97.04C208.536 89.6 202.416 85.04 192.696 85.04C183.096 85.04 177.096 89.6 177.096 97.04C177.096 104.48 183.096 109.16 192.696 109.16Z" fill="#A22877"/>
<path d="M98.7734 116V99.2H101.173V116H98.7734ZM118.251 99.2H120.651V116H118.683L108.603 103.472V116H106.203V99.2H108.171L118.251 111.728V99.2ZM139.528 116H136.912L133.288 110.84C132.952 110.864 132.592 110.888 132.232 110.888H128.08V116H125.68V99.2H132.232C136.6 99.2 139.24 101.408 139.24 105.056C139.24 107.648 137.896 109.52 135.544 110.36L139.528 116ZM132.16 108.848C135.232 108.848 136.84 107.456 136.84 105.056C136.84 102.656 135.232 101.288 132.16 101.288H128.08V108.848H132.16Z" fill="black"/>
<path d="M249.915 116V99.2H253.035V113.36H261.819V116H249.915ZM271.195 99.2C275.611 99.2 278.347 101.456 278.347 105.176C278.347 108.872 275.611 111.152 271.195 111.152H267.403V116H264.283V99.2H271.195ZM271.051 108.512C273.787 108.512 275.203 107.288 275.203 105.176C275.203 103.064 273.787 101.84 271.051 101.84H267.403V108.512H271.051ZM293.194 116L291.514 112.112H283.114L281.458 116H278.242L285.802 99.2H288.874L296.458 116H293.194ZM284.17 109.664H290.482L287.314 102.32L284.17 109.664Z" fill="black"/>
<path d="M53.2635 180.122L50.6735 174.128H37.7235L35.1705 180.122H30.2125L41.8675 154.222H46.6035L58.2955 180.122H53.2635ZM39.3515 170.354H49.0825L44.1985 159.032L39.3515 170.354ZM74.1936 160.364H78.6336L70.1606 180.122H65.3876L56.9146 160.364H61.7246L67.8666 175.016L74.1936 160.364ZM99.5562 170.354C99.5562 170.724 99.5192 171.279 99.4822 171.723H83.9792C84.5342 174.609 86.9392 176.459 90.3802 176.459C92.6002 176.459 94.3392 175.756 95.7452 174.313L98.2242 177.162C96.4482 179.271 93.6732 180.381 90.2692 180.381C83.6462 180.381 79.3542 176.126 79.3542 170.243C79.3542 164.36 83.6832 160.142 89.5662 160.142C95.3382 160.142 99.5562 164.175 99.5562 170.354ZM89.5662 163.842C86.5692 163.842 84.3862 165.766 83.9422 168.652H95.1532C94.7832 165.803 92.6002 163.842 89.5662 163.842ZM108.402 163.25C109.734 161.178 112.139 160.142 115.432 160.142V164.545C115.025 164.471 114.692 164.434 114.359 164.434C110.844 164.434 108.624 166.506 108.624 170.539V180.122H103.999V160.364H108.402V163.25ZM126.795 160.142C132.493 160.142 135.786 162.843 135.786 168.541V180.122H131.42V177.717C130.31 179.419 128.164 180.381 125.204 180.381C120.69 180.381 117.841 177.902 117.841 174.461C117.841 171.168 120.061 168.578 126.055 168.578H131.161V168.282C131.161 165.581 129.533 163.99 126.24 163.99C124.02 163.99 121.726 164.73 120.246 165.951L118.433 162.584C120.542 160.956 123.613 160.142 126.795 160.142ZM126.166 177.014C128.423 177.014 130.384 175.978 131.161 173.943V171.649H126.388C123.243 171.649 122.392 172.833 122.392 174.276C122.392 175.941 123.798 177.014 126.166 177.014ZM157.109 160.364H161.512V177.125C161.512 184.303 157.775 187.559 150.856 187.559C147.156 187.559 143.493 186.597 141.236 184.747L143.308 181.269C145.047 182.712 147.859 183.637 150.597 183.637C154.963 183.637 156.887 181.639 156.887 177.643V176.607C155.259 178.383 152.928 179.234 150.264 179.234C144.603 179.234 140.274 175.386 140.274 169.651C140.274 163.916 144.603 160.142 150.264 160.142C153.039 160.142 155.481 161.03 157.109 162.991V160.364ZM150.967 175.312C154.445 175.312 156.961 173.018 156.961 169.651C156.961 166.321 154.445 164.064 150.967 164.064C147.452 164.064 144.936 166.321 144.936 169.651C144.936 173.018 147.452 175.312 150.967 175.312ZM186.167 170.354C186.167 170.724 186.13 171.279 186.093 171.723H170.59C171.145 174.609 173.55 176.459 176.991 176.459C179.211 176.459 180.95 175.756 182.356 174.313L184.835 177.162C183.059 179.271 180.284 180.381 176.88 180.381C170.257 180.381 165.965 176.126 165.965 170.243C165.965 164.36 170.294 160.142 176.177 160.142C181.949 160.142 186.167 164.175 186.167 170.354ZM176.177 163.842C173.18 163.842 170.997 165.766 170.553 168.652H181.764C181.394 165.803 179.211 163.842 176.177 163.842ZM211.935 154.222C218.743 154.222 222.961 157.7 222.961 163.435C222.961 169.133 218.743 172.648 211.935 172.648H206.089V180.122H201.279V154.222H211.935ZM211.713 168.578C215.931 168.578 218.114 166.691 218.114 163.435C218.114 160.179 215.931 158.292 211.713 158.292H206.089V168.578H211.713ZM234.687 160.142C240.385 160.142 243.678 162.843 243.678 168.541V180.122H239.312V177.717C238.202 179.419 236.056 180.381 233.096 180.381C228.582 180.381 225.733 177.902 225.733 174.461C225.733 171.168 227.953 168.578 233.947 168.578H239.053V168.282C239.053 165.581 237.425 163.99 234.132 163.99C231.912 163.99 229.618 164.73 228.138 165.951L226.325 162.584C228.434 160.956 231.505 160.142 234.687 160.142ZM234.058 177.014C236.315 177.014 238.276 175.978 239.053 173.943V171.649H234.28C231.135 171.649 230.284 172.833 230.284 174.276C230.284 175.941 231.69 177.014 234.058 177.014ZM258.86 180.381C252.607 180.381 248.167 176.163 248.167 170.243C248.167 164.323 252.607 160.142 258.86 160.142C262.708 160.142 265.779 161.733 267.296 164.73L263.744 166.802C262.56 164.915 260.784 164.064 258.823 164.064C255.419 164.064 252.829 166.432 252.829 170.243C252.829 174.091 255.419 176.422 258.823 176.422C260.784 176.422 262.56 175.571 263.744 173.684L267.296 175.756C265.779 178.716 262.708 180.381 258.86 180.381ZM286.024 180.122L279.179 171.649L275.738 174.905V180.122H271.113V152.668H275.738V169.244L285.321 160.364H290.871L282.62 168.652L291.648 180.122H286.024ZM301.822 160.142C307.52 160.142 310.813 162.843 310.813 168.541V180.122H306.447V177.717C305.337 179.419 303.191 180.381 300.231 180.381C295.717 180.381 292.868 177.902 292.868 174.461C292.868 171.168 295.088 168.578 301.082 168.578H306.188V168.282C306.188 165.581 304.56 163.99 301.267 163.99C299.047 163.99 296.753 164.73 295.273 165.951L293.46 162.584C295.569 160.956 298.64 160.142 301.822 160.142ZM301.193 177.014C303.45 177.014 305.411 175.978 306.188 173.943V171.649H301.415C298.27 171.649 297.419 172.833 297.419 174.276C297.419 175.941 298.825 177.014 301.193 177.014ZM332.137 160.364H336.54V177.125C336.54 184.303 332.803 187.559 325.884 187.559C322.184 187.559 318.521 186.597 316.264 184.747L318.336 181.269C320.075 182.712 322.887 183.637 325.625 183.637C329.991 183.637 331.915 181.639 331.915 177.643V176.607C330.287 178.383 327.956 179.234 325.292 179.234C319.631 179.234 315.302 175.386 315.302 169.651C315.302 163.916 319.631 160.142 325.292 160.142C328.067 160.142 330.509 161.03 332.137 162.991V160.364ZM325.995 175.312C329.473 175.312 331.989 173.018 331.989 169.651C331.989 166.321 329.473 164.064 325.995 164.064C322.48 164.064 319.964 166.321 319.964 169.651C319.964 173.018 322.48 175.312 325.995 175.312ZM361.194 170.354C361.194 170.724 361.157 171.279 361.12 171.723H345.617C346.172 174.609 348.577 176.459 352.018 176.459C354.238 176.459 355.977 175.756 357.383 174.313L359.862 177.162C358.086 179.271 355.311 180.381 351.907 180.381C345.284 180.381 340.992 176.126 340.992 170.243C340.992 164.36 345.321 160.142 351.204 160.142C356.976 160.142 361.194 164.175 361.194 170.354ZM351.204 163.842C348.207 163.842 346.024 165.766 345.58 168.652H356.791C356.421 165.803 354.238 163.842 351.204 163.842Z" fill="#A22877"/>
<defs>
<filter id="filter0_d_7106_2866" x="0" y="0" width="396" height="217" filterUnits="userSpaceOnUse" color-interpolation-filters="sRGB">
<feFlood flood-opacity="0" result="BackgroundImageFix"/>
<feColorMatrix in="SourceAlpha" type="matrix" values="0 0 0 0 0 0 0 0 0 0 0 0 0 0 0 0 0 0 127 0" result="hardAlpha"/>
<feOffset dx="2" dy="4"/>
<feGaussianBlur stdDeviation="4"/>
<feComposite in2="hardAlpha" operator="out"/>
<feColorMatrix type="matrix" values="0 0 0 0 0 0 0 0 0 0 0 0 0 0 0 0 0 0 0.25 0"/>
<feBlend mode="normal" in2="BackgroundImageFix" result="effect1_dropShadow_7106_2866"/>
<feBlend mode="normal" in="SourceGraphic" in2="effect1_dropShadow_7106_2866" result="shape"/>
</filter>
</defs>
</svg>
