<svg width="522" height="470" viewBox="0 0 522 470" fill="none" xmlns="http://www.w3.org/2000/svg">
<path d="M260.999 208.9V261L180.5 62.7998V10.6997" fill="#0C7112"/>
<path d="M260.999 208.9V261L180.5 62.7998V10.6997" stroke="#0C7112"/>
<path d="M260.999 208.9L180.5 10.6998C206.498 3.94205 233.663 0.5 260.999 0.5V208.9Z" fill="#D264AB" stroke="#109618"/>
<path d="M218.676 60.76C217.393 60.76 216.137 60.578 214.906 60.214C213.693 59.8327 212.67 59.3127 211.838 58.654L213.268 56.028C213.927 56.5653 214.724 56.9987 215.66 57.328C216.613 57.6573 217.601 57.822 218.624 57.822C219.82 57.822 220.756 57.5707 221.432 57.068C222.125 56.5653 222.472 55.8893 222.472 55.04C222.472 54.468 222.325 53.9653 222.03 53.532C221.753 53.0987 221.25 52.7693 220.522 52.544C219.811 52.3187 218.832 52.206 217.584 52.206H213.19L214.126 42.3H224.812V45.134H215.374L217.142 43.522L216.44 50.932L214.672 49.346H218.338C220.141 49.346 221.588 49.5887 222.68 50.074C223.789 50.542 224.595 51.2007 225.098 52.05C225.618 52.882 225.878 53.8353 225.878 54.91C225.878 55.9673 225.618 56.938 225.098 57.822C224.578 58.706 223.781 59.4167 222.706 59.954C221.649 60.4913 220.305 60.76 218.676 60.76ZM230.122 60.5L242.55 42.3H245.098L232.67 60.5H230.122ZM231.63 52.102C230.78 52.102 230.026 51.894 229.368 51.478C228.709 51.062 228.198 50.4813 227.834 49.736C227.47 48.9907 227.288 48.1153 227.288 47.11C227.288 46.1047 227.47 45.2293 227.834 44.484C228.198 43.7387 228.709 43.158 229.368 42.742C230.026 42.326 230.78 42.118 231.63 42.118C232.514 42.118 233.276 42.326 233.918 42.742C234.576 43.158 235.088 43.7387 235.452 44.484C235.816 45.2293 235.998 46.1047 235.998 47.11C235.998 48.1153 235.816 48.9907 235.452 49.736C235.088 50.4813 234.576 51.062 233.918 51.478C233.276 51.894 232.514 52.102 231.63 52.102ZM231.656 50.282C232.349 50.282 232.886 50.0133 233.268 49.476C233.666 48.9213 233.866 48.1327 233.866 47.11C233.866 46.0873 233.666 45.3073 233.268 44.77C232.886 44.2153 232.349 43.938 231.656 43.938C230.962 43.938 230.408 44.2153 229.992 44.77C229.593 45.3247 229.394 46.1047 229.394 47.11C229.394 48.1153 229.593 48.8953 229.992 49.45C230.408 50.0047 230.962 50.282 231.656 50.282ZM243.564 60.682C242.714 60.682 241.96 60.474 241.302 60.058C240.643 59.642 240.132 59.0613 239.768 58.316C239.404 57.5707 239.222 56.6953 239.222 55.69C239.222 54.6847 239.404 53.8093 239.768 53.064C240.132 52.3187 240.643 51.738 241.302 51.322C241.96 50.906 242.714 50.698 243.564 50.698C244.448 50.698 245.21 50.906 245.852 51.322C246.51 51.738 247.022 52.3187 247.386 53.064C247.75 53.8093 247.932 54.6847 247.932 55.69C247.932 56.6953 247.75 57.5707 247.386 58.316C247.022 59.0613 246.51 59.642 245.852 60.058C245.21 60.474 244.448 60.682 243.564 60.682ZM243.564 58.862C244.257 58.862 244.803 58.5847 245.202 58.03C245.6 57.4753 245.8 56.6953 245.8 55.69C245.8 54.6847 245.6 53.9047 245.202 53.35C244.803 52.7953 244.257 52.518 243.564 52.518C242.888 52.518 242.342 52.7953 241.926 53.35C241.527 53.8873 241.328 54.6673 241.328 55.69C241.328 56.7127 241.527 57.5013 241.926 58.056C242.342 58.5933 242.888 58.862 243.564 58.862Z" fill="white"/>
<path d="M13.2498 273.299V325.4C4.80259 304.601 0.5 282.869 0.5 261V208.9C0.5 230.769 4.80259 252.501 13.2498 273.299Z" fill="#CB5A09" stroke="#BF7300"/>
<path d="M260.999 208.9V261L13.248 325.4V273.299" fill="#BF7300"/>
<path d="M260.999 208.9V261L13.248 325.4V273.299" stroke="#BF7300"/>
<path d="M261.001 208.9L13.2498 273.3C2.67854 247.272 -1.38099 219.833 1.30305 192.549C3.98709 165.266 13.3621 138.673 28.8929 114.288C60.2587 65.0415 114.794 27.7795 180.501 10.6997L261.001 208.9Z" fill="#FF6C02" stroke="#FF6C02"/>
<path d="M85.41 150.5V148.238L92.638 141.374C93.2447 140.802 93.6953 140.299 93.99 139.866C94.2847 139.433 94.4753 139.034 94.562 138.67C94.666 138.289 94.718 137.933 94.718 137.604C94.718 136.772 94.432 136.131 93.86 135.68C93.288 135.212 92.4473 134.978 91.338 134.978C90.454 134.978 89.648 135.134 88.92 135.446C88.2093 135.758 87.594 136.235 87.074 136.876L84.708 135.056C85.4187 134.103 86.372 133.366 87.568 132.846C88.7813 132.309 90.1333 132.04 91.624 132.04C92.9413 132.04 94.0853 132.257 95.056 132.69C96.044 133.106 96.798 133.704 97.318 134.484C97.8553 135.264 98.124 136.191 98.124 137.266C98.124 137.855 98.046 138.445 97.89 139.034C97.734 139.606 97.4393 140.213 97.006 140.854C96.5727 141.495 95.94 142.215 95.108 143.012L88.894 148.914L88.192 147.64H98.826V150.5H85.41ZM106.809 150.76C105.526 150.76 104.269 150.578 103.039 150.214C101.825 149.833 100.803 149.313 99.9708 148.654L101.401 146.028C102.059 146.565 102.857 146.999 103.793 147.328C104.746 147.657 105.734 147.822 106.757 147.822C107.953 147.822 108.889 147.571 109.565 147.068C110.258 146.565 110.605 145.889 110.605 145.04C110.605 144.468 110.457 143.965 110.163 143.532C109.885 143.099 109.383 142.769 108.655 142.544C107.944 142.319 106.965 142.206 105.717 142.206H101.323L102.259 132.3H112.945V135.134H103.507L105.275 133.522L104.573 140.932L102.805 139.346H106.471C108.273 139.346 109.721 139.589 110.813 140.074C111.922 140.542 112.728 141.201 113.231 142.05C113.751 142.882 114.011 143.835 114.011 144.91C114.011 145.967 113.751 146.938 113.231 147.822C112.711 148.706 111.913 149.417 110.839 149.954C109.781 150.491 108.438 150.76 106.809 150.76ZM118.255 150.5L130.683 132.3H133.231L120.803 150.5H118.255ZM119.763 142.102C118.913 142.102 118.159 141.894 117.501 141.478C116.842 141.062 116.331 140.481 115.967 139.736C115.603 138.991 115.42 138.115 115.42 137.11C115.42 136.105 115.603 135.229 115.967 134.484C116.331 133.739 116.842 133.158 117.501 132.742C118.159 132.326 118.913 132.118 119.763 132.118C120.647 132.118 121.409 132.326 122.051 132.742C122.709 133.158 123.221 133.739 123.585 134.484C123.949 135.229 124.131 136.105 124.131 137.11C124.131 138.115 123.949 138.991 123.585 139.736C123.221 140.481 122.709 141.062 122.051 141.478C121.409 141.894 120.647 142.102 119.763 142.102ZM119.789 140.282C120.482 140.282 121.019 140.013 121.401 139.476C121.799 138.921 121.999 138.133 121.999 137.11C121.999 136.087 121.799 135.307 121.401 134.77C121.019 134.215 120.482 133.938 119.789 133.938C119.095 133.938 118.541 134.215 118.125 134.77C117.726 135.325 117.527 136.105 117.527 137.11C117.527 138.115 117.726 138.895 118.125 139.45C118.541 140.005 119.095 140.282 119.789 140.282ZM131.697 150.682C130.847 150.682 130.093 150.474 129.435 150.058C128.776 149.642 128.265 149.061 127.901 148.316C127.537 147.571 127.355 146.695 127.355 145.69C127.355 144.685 127.537 143.809 127.901 143.064C128.265 142.319 128.776 141.738 129.435 141.322C130.093 140.906 130.847 140.698 131.697 140.698C132.581 140.698 133.343 140.906 133.985 141.322C134.643 141.738 135.155 142.319 135.519 143.064C135.883 143.809 136.065 144.685 136.065 145.69C136.065 146.695 135.883 147.571 135.519 148.316C135.155 149.061 134.643 149.642 133.985 150.058C133.343 150.474 132.581 150.682 131.697 150.682ZM131.697 148.862C132.39 148.862 132.936 148.585 133.335 148.03C133.733 147.475 133.933 146.695 133.933 145.69C133.933 144.685 133.733 143.905 133.335 143.35C132.936 142.795 132.39 142.518 131.697 142.518C131.021 142.518 130.475 142.795 130.059 143.35C129.66 143.887 129.461 144.667 129.461 145.69C129.461 146.713 129.66 147.501 130.059 148.056C130.475 148.593 131.021 148.862 131.697 148.862Z" fill="white"/>
<path d="M180.5 407.101V459.201C141.402 449.038 105.866 431.617 76.7971 408.362C47.7281 385.106 25.9516 356.678 13.248 325.399V273.299C25.9516 304.577 47.7281 333.006 76.7971 356.261C105.866 379.517 141.402 396.938 180.5 407.101Z" fill="#84185E" stroke="#A52B0E"/>
<path d="M260.999 208.9V261L180.5 459.201V407.101" fill="#A52B0E"/>
<path d="M260.999 208.9V261L180.5 459.201V407.101" stroke="#A52B0E"/>
<path d="M260.999 208.9L180.5 407.101C141.402 396.938 105.866 379.517 76.7971 356.262C47.7281 333.006 25.9516 304.578 13.248 273.299L260.999 208.9Z" fill="#A22877" stroke="#A22877"/>
<path d="M105.556 317.5V300.6L107.038 302.134H101.708V299.3H108.936V317.5H105.556ZM118.578 317.76C117.296 317.76 116.039 317.578 114.808 317.214C113.595 316.833 112.572 316.313 111.74 315.654L113.17 313.028C113.829 313.565 114.626 313.999 115.562 314.328C116.516 314.657 117.504 314.822 118.526 314.822C119.722 314.822 120.658 314.571 121.334 314.068C122.028 313.565 122.374 312.889 122.374 312.04C122.374 311.468 122.227 310.965 121.932 310.532C121.655 310.099 121.152 309.769 120.424 309.544C119.714 309.319 118.734 309.206 117.486 309.206H113.092L114.028 299.3H124.714V302.134H115.276L117.044 300.522L116.342 307.932L114.574 306.346H118.24C120.043 306.346 121.49 306.589 122.582 307.074C123.692 307.542 124.498 308.201 125 309.05C125.52 309.882 125.78 310.835 125.78 311.91C125.78 312.967 125.52 313.938 125 314.822C124.48 315.706 123.683 316.417 122.608 316.954C121.551 317.491 120.208 317.76 118.578 317.76ZM130.024 317.5L142.452 299.3H145L132.572 317.5H130.024ZM131.532 309.102C130.683 309.102 129.929 308.894 129.27 308.478C128.611 308.062 128.1 307.481 127.736 306.736C127.372 305.991 127.19 305.115 127.19 304.11C127.19 303.105 127.372 302.229 127.736 301.484C128.1 300.739 128.611 300.158 129.27 299.742C129.929 299.326 130.683 299.118 131.532 299.118C132.416 299.118 133.179 299.326 133.82 299.742C134.479 300.158 134.99 300.739 135.354 301.484C135.718 302.229 135.9 303.105 135.9 304.11C135.9 305.115 135.718 305.991 135.354 306.736C134.99 307.481 134.479 308.062 133.82 308.478C133.179 308.894 132.416 309.102 131.532 309.102ZM131.558 307.282C132.251 307.282 132.789 307.013 133.17 306.476C133.569 305.921 133.768 305.133 133.768 304.11C133.768 303.087 133.569 302.307 133.17 301.77C132.789 301.215 132.251 300.938 131.558 300.938C130.865 300.938 130.31 301.215 129.894 301.77C129.495 302.325 129.296 303.105 129.296 304.11C129.296 305.115 129.495 305.895 129.894 306.45C130.31 307.005 130.865 307.282 131.558 307.282ZM143.466 317.682C142.617 317.682 141.863 317.474 141.204 317.058C140.545 316.642 140.034 316.061 139.67 315.316C139.306 314.571 139.124 313.695 139.124 312.69C139.124 311.685 139.306 310.809 139.67 310.064C140.034 309.319 140.545 308.738 141.204 308.322C141.863 307.906 142.617 307.698 143.466 307.698C144.35 307.698 145.113 307.906 145.754 308.322C146.413 308.738 146.924 309.319 147.288 310.064C147.652 310.809 147.834 311.685 147.834 312.69C147.834 313.695 147.652 314.571 147.288 315.316C146.924 316.061 146.413 316.642 145.754 317.058C145.113 317.474 144.35 317.682 143.466 317.682ZM143.466 315.862C144.159 315.862 144.705 315.585 145.104 315.03C145.503 314.475 145.702 313.695 145.702 312.69C145.702 311.685 145.503 310.905 145.104 310.35C144.705 309.795 144.159 309.518 143.466 309.518C142.79 309.518 142.244 309.795 141.828 310.35C141.429 310.887 141.23 311.667 141.23 312.69C141.23 313.713 141.429 314.501 141.828 315.056C142.244 315.593 142.79 315.862 143.466 315.862Z" fill="white"/>
<path d="M521.5 208.9V261C521.5 293.888 511.77 326.309 493.107 355.612C474.443 384.915 447.376 410.269 414.117 429.6C380.859 448.931 342.354 461.69 301.75 466.835C261.147 471.98 219.598 469.364 180.5 459.201V407.101C219.598 417.264 261.147 419.88 301.75 414.735C342.354 409.59 380.859 396.831 414.117 377.5C447.376 358.169 474.443 332.815 493.107 303.512C511.77 274.209 521.5 241.788 521.5 208.9Z" fill="#430F5F" stroke="#264D99"/>
<path d="M260.999 208.9V0.5C298.655 0.5 335.863 7.031 370.06 19.643C404.257 32.255 434.63 50.6482 459.085 73.5552C483.541 96.4622 501.498 123.338 511.719 152.332C521.941 181.326 524.183 211.748 518.292 241.501C512.402 271.255 498.518 299.634 477.597 324.682C456.677 349.729 429.217 370.851 397.11 386.591C365.003 402.331 329.013 412.316 291.618 415.856C254.223 419.397 216.313 416.41 180.5 407.101L260.999 208.9Z" fill="#531675" stroke="#3366CC"/>
<path d="M365.676 217.76C364.393 217.76 363.137 217.578 361.906 217.214C360.693 216.833 359.67 216.313 358.838 215.654L360.268 213.028C360.927 213.565 361.724 213.999 362.66 214.328C363.613 214.657 364.601 214.822 365.624 214.822C366.82 214.822 367.756 214.571 368.432 214.068C369.125 213.565 369.472 212.889 369.472 212.04C369.472 211.468 369.325 210.965 369.03 210.532C368.753 210.099 368.25 209.769 367.522 209.544C366.811 209.319 365.832 209.206 364.584 209.206H360.19L361.126 199.3H371.812V202.134H362.374L364.142 200.522L363.44 207.932L361.672 206.346H365.338C367.141 206.346 368.588 206.589 369.68 207.074C370.789 207.542 371.595 208.201 372.098 209.05C372.618 209.882 372.878 210.835 372.878 211.91C372.878 212.967 372.618 213.938 372.098 214.822C371.578 215.706 370.781 216.417 369.706 216.954C368.649 217.491 367.305 217.76 365.676 217.76ZM380.733 217.76C379.45 217.76 378.193 217.578 376.963 217.214C375.749 216.833 374.727 216.313 373.895 215.654L375.325 213.028C375.983 213.565 376.781 213.999 377.717 214.328C378.67 214.657 379.658 214.822 380.681 214.822C381.877 214.822 382.813 214.571 383.489 214.068C384.182 213.565 384.529 212.889 384.529 212.04C384.529 211.468 384.381 210.965 384.087 210.532C383.809 210.099 383.307 209.769 382.579 209.544C381.868 209.319 380.889 209.206 379.641 209.206H375.247L376.183 199.3H386.869V202.134H377.431L379.199 200.522L378.497 207.932L376.729 206.346H380.395C382.197 206.346 383.645 206.589 384.737 207.074C385.846 207.542 386.652 208.201 387.155 209.05C387.675 209.882 387.935 210.835 387.935 211.91C387.935 212.967 387.675 213.938 387.155 214.822C386.635 215.706 385.837 216.417 384.763 216.954C383.705 217.491 382.362 217.76 380.733 217.76ZM392.178 217.5L404.606 199.3H407.154L394.726 217.5H392.178ZM393.686 209.102C392.837 209.102 392.083 208.894 391.424 208.478C390.766 208.062 390.254 207.481 389.89 206.736C389.526 205.991 389.344 205.115 389.344 204.11C389.344 203.105 389.526 202.229 389.89 201.484C390.254 200.739 390.766 200.158 391.424 199.742C392.083 199.326 392.837 199.118 393.686 199.118C394.57 199.118 395.333 199.326 395.974 199.742C396.633 200.158 397.144 200.739 397.508 201.484C397.872 202.229 398.054 203.105 398.054 204.11C398.054 205.115 397.872 205.991 397.508 206.736C397.144 207.481 396.633 208.062 395.974 208.478C395.333 208.894 394.57 209.102 393.686 209.102ZM393.712 207.282C394.406 207.282 394.943 207.013 395.324 206.476C395.723 205.921 395.922 205.133 395.922 204.11C395.922 203.087 395.723 202.307 395.324 201.77C394.943 201.215 394.406 200.938 393.712 200.938C393.019 200.938 392.464 201.215 392.048 201.77C391.65 202.325 391.45 203.105 391.45 204.11C391.45 205.115 391.65 205.895 392.048 206.45C392.464 207.005 393.019 207.282 393.712 207.282ZM405.62 217.682C404.771 217.682 404.017 217.474 403.358 217.058C402.7 216.642 402.188 216.061 401.824 215.316C401.46 214.571 401.278 213.695 401.278 212.69C401.278 211.685 401.46 210.809 401.824 210.064C402.188 209.319 402.7 208.738 403.358 208.322C404.017 207.906 404.771 207.698 405.62 207.698C406.504 207.698 407.267 207.906 407.908 208.322C408.567 208.738 409.078 209.319 409.442 210.064C409.806 210.809 409.988 211.685 409.988 212.69C409.988 213.695 409.806 214.571 409.442 215.316C409.078 216.061 408.567 216.642 407.908 217.058C407.267 217.474 406.504 217.682 405.62 217.682ZM405.62 215.862C406.314 215.862 406.86 215.585 407.258 215.03C407.657 214.475 407.856 213.695 407.856 212.69C407.856 211.685 407.657 210.905 407.258 210.35C406.86 209.795 406.314 209.518 405.62 209.518C404.944 209.518 404.398 209.795 403.982 210.35C403.584 210.887 403.384 211.667 403.384 212.69C403.384 213.713 403.584 214.501 403.982 215.056C404.398 215.593 404.944 215.862 405.62 215.862Z" fill="white"/>
</svg>
