<svg width="396" height="217" viewBox="0 0 396 217" fill="none" xmlns="http://www.w3.org/2000/svg">
<g filter="url(#filter0_d_7106_2865)">
<rect x="6" y="4" width="380" height="201" rx="9" fill="white"/>
</g>
<path d="M154.247 106.16H190.367V122H126.887V109.4L159.287 78.8C166.727 71.72 168.047 67.4 168.047 63.32C168.047 56.72 163.487 52.88 154.607 52.88C147.407 52.88 141.287 55.64 137.207 61.28L123.047 52.16C129.527 42.68 141.287 36.56 156.407 36.56C175.127 36.56 187.607 46.16 187.607 61.4C187.607 69.56 185.327 77 173.567 87.92L154.247 106.16ZM237.628 72.2C252.748 74.6 260.428 83.96 260.428 96.32C260.428 110.48 249.508 123.44 225.628 123.44C213.868 123.44 201.748 120.2 193.588 114.44L201.148 99.56C207.508 104.36 216.388 107.12 225.148 107.12C234.868 107.12 240.868 103.16 240.868 96.32C240.868 89.96 236.188 86 225.148 86H216.268V73.16L233.548 53.6H197.788V38H256.588V50.6L237.628 72.2Z" fill="#A22877"/>
<path d="M57.7734 116V99.2H60.1734V116H57.7734ZM77.2511 99.2H79.6511V116H77.6831L67.6031 103.472V116H65.2031V99.2H67.1711L77.2511 111.728V99.2ZM98.5276 116H95.9116L92.2876 110.84C91.9516 110.864 91.5916 110.888 91.2316 110.888H87.0796V116H84.6796V99.2H91.2316C95.5996 99.2 98.2396 101.408 98.2396 105.056C98.2396 107.648 96.8956 109.52 94.5436 110.36L98.5276 116ZM91.1596 108.848C94.2316 108.848 95.8396 107.456 95.8396 105.056C95.8396 102.656 94.2316 101.288 91.1596 101.288H87.0796V108.848H91.1596Z" fill="black"/>
<path d="M290.915 116V99.2H294.035V113.36H302.819V116H290.915ZM312.195 99.2C316.611 99.2 319.347 101.456 319.347 105.176C319.347 108.872 316.611 111.152 312.195 111.152H308.403V116H305.283V99.2H312.195ZM312.051 108.512C314.787 108.512 316.203 107.288 316.203 105.176C316.203 103.064 314.787 101.84 312.051 101.84H308.403V108.512H312.051ZM334.194 116L332.514 112.112H324.114L322.458 116H319.242L326.802 99.2H329.874L337.458 116H334.194ZM325.17 109.664H331.482L328.314 102.32L325.17 109.664Z" fill="black"/>
<path d="M55.8734 154.222H60.6834V180.122H55.8734V169.022H42.4794V180.122H37.6694V154.222H42.4794V164.915H55.8734V154.222ZM69.5105 157.108C67.8085 157.108 66.5505 155.887 66.5505 154.333C66.5505 152.779 67.8085 151.558 69.5105 151.558C71.2125 151.558 72.4705 152.705 72.4705 154.222C72.4705 155.85 71.2495 157.108 69.5105 157.108ZM67.1795 180.122V160.364H71.8045V180.122H67.1795ZM93.0818 160.364H97.4848V177.125C97.4848 184.303 93.7478 187.559 86.8288 187.559C83.1288 187.559 79.4658 186.597 77.2088 184.747L79.2808 181.269C81.0198 182.712 83.8318 183.637 86.5698 183.637C90.9358 183.637 92.8598 181.639 92.8598 177.643V176.607C91.2318 178.383 88.9008 179.234 86.2368 179.234C80.5758 179.234 76.2468 175.386 76.2468 169.651C76.2468 163.916 80.5758 160.142 86.2368 160.142C89.0118 160.142 91.4538 161.03 93.0818 162.991V160.364ZM86.9398 175.312C90.4178 175.312 92.9338 173.018 92.9338 169.651C92.9338 166.321 90.4178 164.064 86.9398 164.064C83.4248 164.064 80.9088 166.321 80.9088 169.651C80.9088 173.018 83.4248 175.312 86.9398 175.312ZM114.776 160.142C119.512 160.142 123.027 162.843 123.027 168.8V180.122H118.402V169.392C118.402 165.877 116.663 164.175 113.703 164.175C110.41 164.175 108.19 166.173 108.19 170.132V180.122H103.565V152.668H108.19V162.658C109.707 161.03 112.038 160.142 114.776 160.142ZM147.649 170.354C147.649 170.724 147.612 171.279 147.575 171.723H132.072C132.627 174.609 135.032 176.459 138.473 176.459C140.693 176.459 142.432 175.756 143.838 174.313L146.317 177.162C144.541 179.271 141.766 180.381 138.362 180.381C131.739 180.381 127.447 176.126 127.447 170.243C127.447 164.36 131.776 160.142 137.659 160.142C143.431 160.142 147.649 164.175 147.649 170.354ZM137.659 163.842C134.662 163.842 132.479 165.766 132.035 168.652H143.246C142.876 165.803 140.693 163.842 137.659 163.842ZM158.197 180.381C154.904 180.381 151.611 179.419 149.835 178.161L151.611 174.646C153.35 175.793 156.014 176.607 158.493 176.607C161.416 176.607 162.637 175.793 162.637 174.424C162.637 170.65 150.427 174.202 150.427 166.321C150.427 162.584 153.794 160.142 159.122 160.142C161.749 160.142 164.746 160.771 166.522 161.844L164.746 165.359C162.859 164.249 160.972 163.879 159.085 163.879C156.273 163.879 154.941 164.804 154.941 166.099C154.941 170.095 167.151 166.543 167.151 174.276C167.151 177.976 163.747 180.381 158.197 180.381ZM181.716 175.756L183.011 179.049C181.901 179.937 180.236 180.381 178.571 180.381C174.242 180.381 171.763 178.087 171.763 173.721V164.212H168.507V160.512H171.763V155.998H176.388V160.512H181.679V164.212H176.388V173.61C176.388 175.534 177.35 176.57 179.126 176.57C180.088 176.57 181.013 176.311 181.716 175.756ZM208.141 154.222C214.949 154.222 219.167 157.7 219.167 163.435C219.167 169.133 214.949 172.648 208.141 172.648H202.295V180.122H197.485V154.222H208.141ZM207.919 168.578C212.137 168.578 214.32 166.691 214.32 163.435C214.32 160.179 212.137 158.292 207.919 158.292H202.295V168.578H207.919ZM230.894 160.142C236.592 160.142 239.885 162.843 239.885 168.541V180.122H235.519V177.717C234.409 179.419 232.263 180.381 229.303 180.381C224.789 180.381 221.94 177.902 221.94 174.461C221.94 171.168 224.16 168.578 230.154 168.578H235.26V168.282C235.26 165.581 233.632 163.99 230.339 163.99C228.119 163.99 225.825 164.73 224.345 165.951L222.532 162.584C224.641 160.956 227.712 160.142 230.894 160.142ZM230.265 177.014C232.522 177.014 234.483 175.978 235.26 173.943V171.649H230.487C227.342 171.649 226.491 172.833 226.491 174.276C226.491 175.941 227.897 177.014 230.265 177.014ZM255.066 180.381C248.813 180.381 244.373 176.163 244.373 170.243C244.373 164.323 248.813 160.142 255.066 160.142C258.914 160.142 261.985 161.733 263.502 164.73L259.95 166.802C258.766 164.915 256.99 164.064 255.029 164.064C251.625 164.064 249.035 166.432 249.035 170.243C249.035 174.091 251.625 176.422 255.029 176.422C256.99 176.422 258.766 175.571 259.95 173.684L263.502 175.756C261.985 178.716 258.914 180.381 255.066 180.381ZM282.23 180.122L275.385 171.649L271.944 174.905V180.122H267.319V152.668H271.944V169.244L281.527 160.364H287.077L278.826 168.652L287.854 180.122H282.23ZM298.028 160.142C303.726 160.142 307.019 162.843 307.019 168.541V180.122H302.653V177.717C301.543 179.419 299.397 180.381 296.437 180.381C291.923 180.381 289.074 177.902 289.074 174.461C289.074 171.168 291.294 168.578 297.288 168.578H302.394V168.282C302.394 165.581 300.766 163.99 297.473 163.99C295.253 163.99 292.959 164.73 291.479 165.951L289.666 162.584C291.775 160.956 294.846 160.142 298.028 160.142ZM297.399 177.014C299.656 177.014 301.617 175.978 302.394 173.943V171.649H297.621C294.476 171.649 293.625 172.833 293.625 174.276C293.625 175.941 295.031 177.014 297.399 177.014ZM328.343 160.364H332.746V177.125C332.746 184.303 329.009 187.559 322.09 187.559C318.39 187.559 314.727 186.597 312.47 184.747L314.542 181.269C316.281 182.712 319.093 183.637 321.831 183.637C326.197 183.637 328.121 181.639 328.121 177.643V176.607C326.493 178.383 324.162 179.234 321.498 179.234C315.837 179.234 311.508 175.386 311.508 169.651C311.508 163.916 315.837 160.142 321.498 160.142C324.273 160.142 326.715 161.03 328.343 162.991V160.364ZM322.201 175.312C325.679 175.312 328.195 173.018 328.195 169.651C328.195 166.321 325.679 164.064 322.201 164.064C318.686 164.064 316.17 166.321 316.17 169.651C316.17 173.018 318.686 175.312 322.201 175.312ZM357.4 170.354C357.4 170.724 357.363 171.279 357.326 171.723H341.823C342.378 174.609 344.783 176.459 348.224 176.459C350.444 176.459 352.183 175.756 353.589 174.313L356.068 177.162C354.292 179.271 351.517 180.381 348.113 180.381C341.49 180.381 337.198 176.126 337.198 170.243C337.198 164.36 341.527 160.142 347.41 160.142C353.182 160.142 357.4 164.175 357.4 170.354ZM347.41 163.842C344.413 163.842 342.23 165.766 341.786 168.652H352.997C352.627 165.803 350.444 163.842 347.41 163.842Z" fill="#A22877"/>
<defs>
<filter id="filter0_d_7106_2865" x="0" y="0" width="396" height="217" filterUnits="userSpaceOnUse" color-interpolation-filters="sRGB">
<feFlood flood-opacity="0" result="BackgroundImageFix"/>
<feColorMatrix in="SourceAlpha" type="matrix" values="0 0 0 0 0 0 0 0 0 0 0 0 0 0 0 0 0 0 127 0" result="hardAlpha"/>
<feOffset dx="2" dy="4"/>
<feGaussianBlur stdDeviation="4"/>
<feComposite in2="hardAlpha" operator="out"/>
<feColorMatrix type="matrix" values="0 0 0 0 0 0 0 0 0 0 0 0 0 0 0 0 0 0 0.25 0"/>
<feBlend mode="normal" in2="BackgroundImageFix" result="effect1_dropShadow_7106_2865"/>
<feBlend mode="normal" in="SourceGraphic" in2="effect1_dropShadow_7106_2865" result="shape"/>
</filter>
</defs>
</svg>
