<svg width="537" height="483" viewBox="0 0 537 483" fill="none" xmlns="http://www.w3.org/2000/svg">
<path d="M268.277 214.722V268.277L522.949 202.079V148.523" fill="#264D99"/>
<path d="M268.277 214.722V268.277L522.949 202.079V148.523" stroke="#264D99"/>
<path d="M268.277 214.722V0.5C324.826 0.5 379.924 14.8218 425.673 41.4127C471.422 68.0037 505.474 105.499 522.949 148.524L268.277 214.722Z" fill="#3366CC" stroke="#3366CC"/>
<path d="M335.41 96.5V94.238L342.638 87.374C343.245 86.802 343.695 86.2993 343.99 85.866C344.285 85.4327 344.475 85.034 344.562 84.67C344.666 84.2887 344.718 83.9333 344.718 83.604C344.718 82.772 344.432 82.1307 343.86 81.68C343.288 81.212 342.447 80.978 341.338 80.978C340.454 80.978 339.648 81.134 338.92 81.446C338.209 81.758 337.594 82.2347 337.074 82.876L334.708 81.056C335.419 80.1027 336.372 79.366 337.568 78.846C338.781 78.3087 340.133 78.04 341.624 78.04C342.941 78.04 344.085 78.2567 345.056 78.69C346.044 79.106 346.798 79.704 347.318 80.484C347.855 81.264 348.124 82.1913 348.124 83.266C348.124 83.8553 348.046 84.4447 347.89 85.034C347.734 85.606 347.439 86.2127 347.006 86.854C346.573 87.4953 345.94 88.2147 345.108 89.012L338.894 94.914L338.192 93.64H348.826V96.5H335.41ZM358.369 96.76C356.93 96.76 355.63 96.396 354.469 95.668C353.325 94.94 352.423 93.8827 351.765 92.496C351.106 91.092 350.777 89.3933 350.777 87.4C350.777 85.4067 351.106 83.7167 351.765 82.33C352.423 80.926 353.325 79.86 354.469 79.132C355.63 78.404 356.93 78.04 358.369 78.04C359.825 78.04 361.125 78.404 362.269 79.132C363.413 79.86 364.314 80.926 364.973 82.33C365.649 83.7167 365.987 85.4067 365.987 87.4C365.987 89.3933 365.649 91.092 364.973 92.496C364.314 93.8827 363.413 94.94 362.269 95.668C361.125 96.396 359.825 96.76 358.369 96.76ZM358.369 93.822C359.218 93.822 359.955 93.5967 360.579 93.146C361.203 92.678 361.688 91.9673 362.035 91.014C362.399 90.0607 362.581 88.856 362.581 87.4C362.581 85.9267 362.399 84.722 362.035 83.786C361.688 82.8327 361.203 82.1307 360.579 81.68C359.955 81.212 359.218 80.978 358.369 80.978C357.554 80.978 356.826 81.212 356.185 81.68C355.561 82.1307 355.067 82.8327 354.703 83.786C354.356 84.722 354.183 85.9267 354.183 87.4C354.183 88.856 354.356 90.0607 354.703 91.014C355.067 91.9673 355.561 92.678 356.185 93.146C356.826 93.5967 357.554 93.822 358.369 93.822ZM370.819 96.5L383.247 78.3H385.795L373.367 96.5H370.819ZM372.327 88.102C371.478 88.102 370.724 87.894 370.065 87.478C369.406 87.062 368.895 86.4813 368.531 85.736C368.167 84.9907 367.985 84.1153 367.985 83.11C367.985 82.1047 368.167 81.2293 368.531 80.484C368.895 79.7387 369.406 79.158 370.065 78.742C370.724 78.326 371.478 78.118 372.327 78.118C373.211 78.118 373.974 78.326 374.615 78.742C375.274 79.158 375.785 79.7387 376.149 80.484C376.513 81.2293 376.695 82.1047 376.695 83.11C376.695 84.1153 376.513 84.9907 376.149 85.736C375.785 86.4813 375.274 87.062 374.615 87.478C373.974 87.894 373.211 88.102 372.327 88.102ZM372.353 86.282C373.046 86.282 373.584 86.0133 373.965 85.476C374.364 84.9213 374.563 84.1327 374.563 83.11C374.563 82.0873 374.364 81.3073 373.965 80.77C373.584 80.2153 373.046 79.938 372.353 79.938C371.66 79.938 371.105 80.2153 370.689 80.77C370.29 81.3247 370.091 82.1047 370.091 83.11C370.091 84.1153 370.29 84.8953 370.689 85.45C371.105 86.0047 371.66 86.282 372.353 86.282ZM384.261 96.682C383.412 96.682 382.658 96.474 381.999 96.058C381.34 95.642 380.829 95.0613 380.465 94.316C380.101 93.5707 379.919 92.6953 379.919 91.69C379.919 90.6847 380.101 89.8093 380.465 89.064C380.829 88.3187 381.34 87.738 381.999 87.322C382.658 86.906 383.412 86.698 384.261 86.698C385.145 86.698 385.908 86.906 386.549 87.322C387.208 87.738 387.719 88.3187 388.083 89.064C388.447 89.8093 388.629 90.6847 388.629 91.69C388.629 92.6953 388.447 93.5707 388.083 94.316C387.719 95.0613 387.208 95.642 386.549 96.058C385.908 96.474 385.145 96.682 384.261 96.682ZM384.261 94.862C384.954 94.862 385.5 94.5847 385.899 94.03C386.298 93.4753 386.497 92.6953 386.497 91.69C386.497 90.6847 386.298 89.9047 385.899 89.35C385.5 88.7953 384.954 88.518 384.261 88.518C383.585 88.518 383.039 88.7953 382.623 89.35C382.224 89.8873 382.025 90.6673 382.025 91.69C382.025 92.7127 382.224 93.5013 382.623 94.056C383.039 94.5933 383.585 94.862 384.261 94.862Z" fill="white"/>
<path d="M536.057 214.723V268.278C536.057 313.517 518.155 357.595 484.916 394.195C451.677 430.794 404.809 458.036 351.027 472.015V418.46C404.809 404.48 451.677 377.238 484.916 340.639C518.155 304.04 536.057 259.962 536.057 214.723Z" fill="#430F5F" stroke="#A52B0E"/>
<path d="M268.277 214.723V268.278L351.025 472.015V418.46" fill="#A52B0E"/>
<path d="M268.277 214.723V268.278L351.025 472.015V418.46" stroke="#A52B0E"/>
<path d="M268.277 214.723L522.949 148.524C544.895 202.559 539.111 261.355 506.869 311.977C474.627 362.6 418.568 400.903 351.025 418.46L268.277 214.723Z" fill="#531675" stroke="#DC3912"/>
<path d="M386.41 285.5V283.238L393.638 276.374C394.245 275.802 394.695 275.299 394.99 274.866C395.285 274.433 395.475 274.034 395.562 273.67C395.666 273.289 395.718 272.933 395.718 272.604C395.718 271.772 395.432 271.131 394.86 270.68C394.288 270.212 393.447 269.978 392.338 269.978C391.454 269.978 390.648 270.134 389.92 270.446C389.209 270.758 388.594 271.235 388.074 271.876L385.708 270.056C386.419 269.103 387.372 268.366 388.568 267.846C389.781 267.309 391.133 267.04 392.624 267.04C393.941 267.04 395.085 267.257 396.056 267.69C397.044 268.106 397.798 268.704 398.318 269.484C398.855 270.264 399.124 271.191 399.124 272.266C399.124 272.855 399.046 273.445 398.89 274.034C398.734 274.606 398.439 275.213 398.006 275.854C397.573 276.495 396.94 277.215 396.108 278.012L389.894 283.914L389.192 282.64H399.826V285.5H386.41ZM407.809 285.76C406.526 285.76 405.269 285.578 404.039 285.214C402.825 284.833 401.803 284.313 400.971 283.654L402.401 281.028C403.059 281.565 403.857 281.999 404.793 282.328C405.746 282.657 406.734 282.822 407.757 282.822C408.953 282.822 409.889 282.571 410.565 282.068C411.258 281.565 411.605 280.889 411.605 280.04C411.605 279.468 411.457 278.965 411.163 278.532C410.885 278.099 410.383 277.769 409.655 277.544C408.944 277.319 407.965 277.206 406.717 277.206H402.323L403.259 267.3H413.945V270.134H404.507L406.275 268.522L405.573 275.932L403.805 274.346H407.471C409.273 274.346 410.721 274.589 411.813 275.074C412.922 275.542 413.728 276.201 414.231 277.05C414.751 277.882 415.011 278.835 415.011 279.91C415.011 280.967 414.751 281.938 414.231 282.822C413.711 283.706 412.913 284.417 411.839 284.954C410.781 285.491 409.438 285.76 407.809 285.76ZM419.255 285.5L431.683 267.3H434.231L421.803 285.5H419.255ZM420.763 277.102C419.913 277.102 419.159 276.894 418.501 276.478C417.842 276.062 417.331 275.481 416.967 274.736C416.603 273.991 416.42 273.115 416.42 272.11C416.42 271.105 416.603 270.229 416.967 269.484C417.331 268.739 417.842 268.158 418.501 267.742C419.159 267.326 419.913 267.118 420.763 267.118C421.647 267.118 422.409 267.326 423.051 267.742C423.709 268.158 424.221 268.739 424.585 269.484C424.949 270.229 425.131 271.105 425.131 272.11C425.131 273.115 424.949 273.991 424.585 274.736C424.221 275.481 423.709 276.062 423.051 276.478C422.409 276.894 421.647 277.102 420.763 277.102ZM420.789 275.282C421.482 275.282 422.019 275.013 422.401 274.476C422.799 273.921 422.999 273.133 422.999 272.11C422.999 271.087 422.799 270.307 422.401 269.77C422.019 269.215 421.482 268.938 420.789 268.938C420.095 268.938 419.541 269.215 419.125 269.77C418.726 270.325 418.527 271.105 418.527 272.11C418.527 273.115 418.726 273.895 419.125 274.45C419.541 275.005 420.095 275.282 420.789 275.282ZM432.697 285.682C431.847 285.682 431.093 285.474 430.435 285.058C429.776 284.642 429.265 284.061 428.901 283.316C428.537 282.571 428.355 281.695 428.355 280.69C428.355 279.685 428.537 278.809 428.901 278.064C429.265 277.319 429.776 276.738 430.435 276.322C431.093 275.906 431.847 275.698 432.697 275.698C433.581 275.698 434.343 275.906 434.985 276.322C435.643 276.738 436.155 277.319 436.519 278.064C436.883 278.809 437.065 279.685 437.065 280.69C437.065 281.695 436.883 282.571 436.519 283.316C436.155 284.061 435.643 284.642 434.985 285.058C434.343 285.474 433.581 285.682 432.697 285.682ZM432.697 283.862C433.39 283.862 433.936 283.585 434.335 283.03C434.733 282.475 434.933 281.695 434.933 280.69C434.933 279.685 434.733 278.905 434.335 278.35C433.936 277.795 433.39 277.518 432.697 277.518C432.021 277.518 431.475 277.795 431.059 278.35C430.66 278.887 430.461 279.667 430.461 280.69C430.461 281.713 430.66 282.501 431.059 283.056C431.475 283.593 432.021 283.862 432.697 283.862Z" fill="white"/>
<path d="M268.277 214.722V268.277L13.6055 202.079V148.523" fill="#A63359"/>
<path d="M268.277 214.722V268.277L13.6055 202.079V148.523" stroke="#A63359"/>
<path d="M268.277 214.722L13.6055 148.524C31.0801 105.499 65.1321 68.0037 110.881 41.4127C156.63 14.8218 211.728 0.5 268.277 0.5V214.722Z" fill="#6E3299" stroke="#DD4477"/>
<path d="M135.41 96.5V94.238L142.638 87.374C143.245 86.802 143.695 86.2993 143.99 85.866C144.285 85.4327 144.475 85.034 144.562 84.67C144.666 84.2887 144.718 83.9333 144.718 83.604C144.718 82.772 144.432 82.1307 143.86 81.68C143.288 81.212 142.447 80.978 141.338 80.978C140.454 80.978 139.648 81.134 138.92 81.446C138.209 81.758 137.594 82.2347 137.074 82.876L134.708 81.056C135.419 80.1027 136.372 79.366 137.568 78.846C138.781 78.3087 140.133 78.04 141.624 78.04C142.941 78.04 144.085 78.2567 145.056 78.69C146.044 79.106 146.798 79.704 147.318 80.484C147.855 81.264 148.124 82.1913 148.124 83.266C148.124 83.8553 148.046 84.4447 147.89 85.034C147.734 85.606 147.439 86.2127 147.006 86.854C146.573 87.4953 145.94 88.2147 145.108 89.012L138.894 94.914L138.192 93.64H148.826V96.5H135.41ZM158.369 96.76C156.93 96.76 155.63 96.396 154.469 95.668C153.325 94.94 152.423 93.8827 151.765 92.496C151.106 91.092 150.777 89.3933 150.777 87.4C150.777 85.4067 151.106 83.7167 151.765 82.33C152.423 80.926 153.325 79.86 154.469 79.132C155.63 78.404 156.93 78.04 158.369 78.04C159.825 78.04 161.125 78.404 162.269 79.132C163.413 79.86 164.314 80.926 164.973 82.33C165.649 83.7167 165.987 85.4067 165.987 87.4C165.987 89.3933 165.649 91.092 164.973 92.496C164.314 93.8827 163.413 94.94 162.269 95.668C161.125 96.396 159.825 96.76 158.369 96.76ZM158.369 93.822C159.218 93.822 159.955 93.5967 160.579 93.146C161.203 92.678 161.688 91.9673 162.035 91.014C162.399 90.0607 162.581 88.856 162.581 87.4C162.581 85.9267 162.399 84.722 162.035 83.786C161.688 82.8327 161.203 82.1307 160.579 81.68C159.955 81.212 159.218 80.978 158.369 80.978C157.554 80.978 156.826 81.212 156.185 81.68C155.561 82.1307 155.067 82.8327 154.703 83.786C154.356 84.722 154.183 85.9267 154.183 87.4C154.183 88.856 154.356 90.0607 154.703 91.014C155.067 91.9673 155.561 92.678 156.185 93.146C156.826 93.5967 157.554 93.822 158.369 93.822ZM170.819 96.5L183.247 78.3H185.795L173.367 96.5H170.819ZM172.327 88.102C171.478 88.102 170.724 87.894 170.065 87.478C169.406 87.062 168.895 86.4813 168.531 85.736C168.167 84.9907 167.985 84.1153 167.985 83.11C167.985 82.1047 168.167 81.2293 168.531 80.484C168.895 79.7387 169.406 79.158 170.065 78.742C170.724 78.326 171.478 78.118 172.327 78.118C173.211 78.118 173.974 78.326 174.615 78.742C175.274 79.158 175.785 79.7387 176.149 80.484C176.513 81.2293 176.695 82.1047 176.695 83.11C176.695 84.1153 176.513 84.9907 176.149 85.736C175.785 86.4813 175.274 87.062 174.615 87.478C173.974 87.894 173.211 88.102 172.327 88.102ZM172.353 86.282C173.046 86.282 173.584 86.0133 173.965 85.476C174.364 84.9213 174.563 84.1327 174.563 83.11C174.563 82.0873 174.364 81.3073 173.965 80.77C173.584 80.2153 173.046 79.938 172.353 79.938C171.66 79.938 171.105 80.2153 170.689 80.77C170.29 81.3247 170.091 82.1047 170.091 83.11C170.091 84.1153 170.29 84.8953 170.689 85.45C171.105 86.0047 171.66 86.282 172.353 86.282ZM184.261 96.682C183.412 96.682 182.658 96.474 181.999 96.058C181.34 95.642 180.829 95.0613 180.465 94.316C180.101 93.5707 179.919 92.6953 179.919 91.69C179.919 90.6847 180.101 89.8093 180.465 89.064C180.829 88.3187 181.34 87.738 181.999 87.322C182.658 86.906 183.412 86.698 184.261 86.698C185.145 86.698 185.908 86.906 186.549 87.322C187.208 87.738 187.719 88.3187 188.083 89.064C188.447 89.8093 188.629 90.6847 188.629 91.69C188.629 92.6953 188.447 93.5707 188.083 94.316C187.719 95.0613 187.208 95.642 186.549 96.058C185.908 96.474 185.145 96.682 184.261 96.682ZM184.261 94.862C184.954 94.862 185.5 94.5847 185.899 94.03C186.298 93.4753 186.497 92.6953 186.497 91.69C186.497 90.6847 186.298 89.9047 185.899 89.35C185.5 88.7953 184.954 88.518 184.261 88.518C183.585 88.518 183.039 88.7953 182.623 89.35C182.224 89.8873 182.025 90.6673 182.025 91.69C182.025 92.7127 182.224 93.5013 182.623 94.056C183.039 94.5933 183.585 94.862 184.261 94.862Z" fill="white"/>
<path d="M0.5 214.723V268.278" stroke="#007395"/>
<path d="M268.277 214.723V268.278H0.5V214.723" fill="#007395"/>
<path d="M268.277 214.723V268.278H0.5V214.723" stroke="#007395"/>
<path d="M268.277 214.723H0.5C0.5 192.243 4.92277 169.904 13.606 148.524L268.277 214.723Z" fill="#D264AB" stroke="#0099C6"/>
<path d="M32.676 195.76C31.3933 195.76 30.1367 195.578 28.906 195.214C27.6927 194.833 26.67 194.313 25.838 193.654L27.268 191.028C27.9267 191.565 28.724 191.999 29.66 192.328C30.6133 192.657 31.6013 192.822 32.624 192.822C33.82 192.822 34.756 192.571 35.432 192.068C36.1253 191.565 36.472 190.889 36.472 190.04C36.472 189.468 36.3247 188.965 36.03 188.532C35.7527 188.099 35.25 187.769 34.522 187.544C33.8113 187.319 32.832 187.206 31.584 187.206H27.19L28.126 177.3H38.812V180.134H29.374L31.142 178.522L30.44 185.932L28.672 184.346H32.338C34.1407 184.346 35.588 184.589 36.68 185.074C37.7893 185.542 38.5953 186.201 39.098 187.05C39.618 187.882 39.878 188.835 39.878 189.91C39.878 190.967 39.618 191.938 39.098 192.822C38.578 193.706 37.7807 194.417 36.706 194.954C35.6487 195.491 34.3053 195.76 32.676 195.76ZM44.1217 195.5L56.5497 177.3H59.0977L46.6697 195.5H44.1217ZM45.6297 187.102C44.7804 187.102 44.0264 186.894 43.3677 186.478C42.709 186.062 42.1977 185.481 41.8337 184.736C41.4697 183.991 41.2877 183.115 41.2877 182.11C41.2877 181.105 41.4697 180.229 41.8337 179.484C42.1977 178.739 42.709 178.158 43.3677 177.742C44.0264 177.326 44.7804 177.118 45.6297 177.118C46.5137 177.118 47.2764 177.326 47.9177 177.742C48.5764 178.158 49.0877 178.739 49.4517 179.484C49.8157 180.229 49.9977 181.105 49.9977 182.11C49.9977 183.115 49.8157 183.991 49.4517 184.736C49.0877 185.481 48.5764 186.062 47.9177 186.478C47.2764 186.894 46.5137 187.102 45.6297 187.102ZM45.6557 185.282C46.349 185.282 46.8864 185.013 47.2677 184.476C47.6664 183.921 47.8657 183.133 47.8657 182.11C47.8657 181.087 47.6664 180.307 47.2677 179.77C46.8864 179.215 46.349 178.938 45.6557 178.938C44.9624 178.938 44.4077 179.215 43.9917 179.77C43.593 180.325 43.3937 181.105 43.3937 182.11C43.3937 183.115 43.593 183.895 43.9917 184.45C44.4077 185.005 44.9624 185.282 45.6557 185.282ZM57.5637 195.682C56.7144 195.682 55.9604 195.474 55.3017 195.058C54.643 194.642 54.1317 194.061 53.7677 193.316C53.4037 192.571 53.2217 191.695 53.2217 190.69C53.2217 189.685 53.4037 188.809 53.7677 188.064C54.1317 187.319 54.643 186.738 55.3017 186.322C55.9604 185.906 56.7144 185.698 57.5637 185.698C58.4477 185.698 59.2104 185.906 59.8517 186.322C60.5104 186.738 61.0217 187.319 61.3857 188.064C61.7497 188.809 61.9317 189.685 61.9317 190.69C61.9317 191.695 61.7497 192.571 61.3857 193.316C61.0217 194.061 60.5104 194.642 59.8517 195.058C59.2104 195.474 58.4477 195.682 57.5637 195.682ZM57.5637 193.862C58.257 193.862 58.803 193.585 59.2017 193.03C59.6004 192.475 59.7997 191.695 59.7997 190.69C59.7997 189.685 59.6004 188.905 59.2017 188.35C58.803 187.795 58.257 187.518 57.5637 187.518C56.8877 187.518 56.3417 187.795 55.9257 188.35C55.527 188.887 55.3277 189.667 55.3277 190.69C55.3277 191.713 55.527 192.501 55.9257 193.056C56.3417 193.593 56.8877 193.862 57.5637 193.862Z" fill="white"/>
<path d="M13.606 280.921V334.476C4.92277 313.097 0.5 290.758 0.5 268.278V214.723C0.5 237.202 4.92277 259.542 13.606 280.921Z" fill="#730073" stroke="#730073"/>
<path d="M268.277 214.723V268.278L13.6055 334.476V280.921" fill="#730073"/>
<path d="M268.277 214.723V268.278L13.6055 334.476V280.921" stroke="#730073"/>
<path d="M268.277 214.723L13.606 280.921C4.92277 259.542 0.5 237.202 0.5 214.723H268.277Z" fill="#990099" stroke="#990099"/>
<path d="M50.676 250.76C49.3933 250.76 48.1367 250.578 46.906 250.214C45.6927 249.833 44.67 249.313 43.838 248.654L45.268 246.028C45.9267 246.565 46.724 246.999 47.66 247.328C48.6133 247.657 49.6013 247.822 50.624 247.822C51.82 247.822 52.756 247.571 53.432 247.068C54.1253 246.565 54.472 245.889 54.472 245.04C54.472 244.468 54.3247 243.965 54.03 243.532C53.7527 243.099 53.25 242.769 52.522 242.544C51.8113 242.319 50.832 242.206 49.584 242.206H45.19L46.126 232.3H56.812V235.134H47.374L49.142 233.522L48.44 240.932L46.672 239.346H50.338C52.1407 239.346 53.588 239.589 54.68 240.074C55.7893 240.542 56.5953 241.201 57.098 242.05C57.618 242.882 57.878 243.835 57.878 244.91C57.878 245.967 57.618 246.938 57.098 247.822C56.578 248.706 55.7807 249.417 54.706 249.954C53.6487 250.491 52.3053 250.76 50.676 250.76ZM62.1217 250.5L74.5497 232.3H77.0977L64.6697 250.5H62.1217ZM63.6297 242.102C62.7804 242.102 62.0264 241.894 61.3677 241.478C60.709 241.062 60.1977 240.481 59.8337 239.736C59.4697 238.991 59.2877 238.115 59.2877 237.11C59.2877 236.105 59.4697 235.229 59.8337 234.484C60.1977 233.739 60.709 233.158 61.3677 232.742C62.0264 232.326 62.7804 232.118 63.6297 232.118C64.5137 232.118 65.2764 232.326 65.9177 232.742C66.5764 233.158 67.0877 233.739 67.4517 234.484C67.8157 235.229 67.9977 236.105 67.9977 237.11C67.9977 238.115 67.8157 238.991 67.4517 239.736C67.0877 240.481 66.5764 241.062 65.9177 241.478C65.2764 241.894 64.5137 242.102 63.6297 242.102ZM63.6557 240.282C64.349 240.282 64.8864 240.013 65.2677 239.476C65.6664 238.921 65.8657 238.133 65.8657 237.11C65.8657 236.087 65.6664 235.307 65.2677 234.77C64.8864 234.215 64.349 233.938 63.6557 233.938C62.9624 233.938 62.4077 234.215 61.9917 234.77C61.593 235.325 61.3937 236.105 61.3937 237.11C61.3937 238.115 61.593 238.895 61.9917 239.45C62.4077 240.005 62.9624 240.282 63.6557 240.282ZM75.5637 250.682C74.7144 250.682 73.9604 250.474 73.3017 250.058C72.643 249.642 72.1317 249.061 71.7677 248.316C71.4037 247.571 71.2217 246.695 71.2217 245.69C71.2217 244.685 71.4037 243.809 71.7677 243.064C72.1317 242.319 72.643 241.738 73.3017 241.322C73.9604 240.906 74.7144 240.698 75.5637 240.698C76.4477 240.698 77.2104 240.906 77.8517 241.322C78.5104 241.738 79.0217 242.319 79.3857 243.064C79.7497 243.809 79.9317 244.685 79.9317 245.69C79.9317 246.695 79.7497 247.571 79.3857 248.316C79.0217 249.061 78.5104 249.642 77.8517 250.058C77.2104 250.474 76.4477 250.682 75.5637 250.682ZM75.5637 248.862C76.257 248.862 76.803 248.585 77.2017 248.03C77.6004 247.475 77.7997 246.695 77.7997 245.69C77.7997 244.685 77.6004 243.905 77.2017 243.35C76.803 242.795 76.257 242.518 75.5637 242.518C74.8877 242.518 74.3417 242.795 73.9257 243.35C73.527 243.887 73.3277 244.667 73.3277 245.69C73.3277 246.713 73.527 247.501 73.9257 248.056C74.3417 248.593 74.8877 248.862 75.5637 248.862Z" fill="white"/>
<path d="M110.881 388.032V441.587C65.1321 414.996 31.0801 377.501 13.6055 334.476V280.921C31.0801 323.946 65.1321 361.441 110.881 388.032Z" fill="#D38D8E" stroke="#D46AAF"/>
<path d="M268.274 214.723V268.278L110.879 441.587V388.032" fill="#0C7112"/>
<path d="M268.274 214.723V268.278L110.879 441.587V388.032" stroke="#0C7112"/>
<path d="M268.277 214.723L110.881 388.032C65.1321 361.441 31.0801 323.946 13.6055 280.921L268.277 214.723Z" fill="#F5BBBC" stroke="#109618"/>
<path d="M101.556 305.5V288.6L103.038 290.134H97.708V287.3H104.936V305.5H101.556ZM116.138 305.76C114.7 305.76 113.4 305.396 112.238 304.668C111.094 303.94 110.193 302.883 109.534 301.496C108.876 300.092 108.546 298.393 108.546 296.4C108.546 294.407 108.876 292.717 109.534 291.33C110.193 289.926 111.094 288.86 112.238 288.132C113.4 287.404 114.7 287.04 116.138 287.04C117.594 287.04 118.894 287.404 120.038 288.132C121.182 288.86 122.084 289.926 122.742 291.33C123.418 292.717 123.756 294.407 123.756 296.4C123.756 298.393 123.418 300.092 122.742 301.496C122.084 302.883 121.182 303.94 120.038 304.668C118.894 305.396 117.594 305.76 116.138 305.76ZM116.138 302.822C116.988 302.822 117.724 302.597 118.348 302.146C118.972 301.678 119.458 300.967 119.804 300.014C120.168 299.061 120.35 297.856 120.35 296.4C120.35 294.927 120.168 293.722 119.804 292.786C119.458 291.833 118.972 291.131 118.348 290.68C117.724 290.212 116.988 289.978 116.138 289.978C115.324 289.978 114.596 290.212 113.954 290.68C113.33 291.131 112.836 291.833 112.472 292.786C112.126 293.722 111.952 294.927 111.952 296.4C111.952 297.856 112.126 299.061 112.472 300.014C112.836 300.967 113.33 301.678 113.954 302.146C114.596 302.597 115.324 302.822 116.138 302.822ZM128.588 305.5L141.016 287.3H143.564L131.136 305.5H128.588ZM130.096 297.102C129.247 297.102 128.493 296.894 127.834 296.478C127.176 296.062 126.664 295.481 126.3 294.736C125.936 293.991 125.754 293.115 125.754 292.11C125.754 291.105 125.936 290.229 126.3 289.484C126.664 288.739 127.176 288.158 127.834 287.742C128.493 287.326 129.247 287.118 130.096 287.118C130.98 287.118 131.743 287.326 132.384 287.742C133.043 288.158 133.554 288.739 133.918 289.484C134.282 290.229 134.464 291.105 134.464 292.11C134.464 293.115 134.282 293.991 133.918 294.736C133.554 295.481 133.043 296.062 132.384 296.478C131.743 296.894 130.98 297.102 130.096 297.102ZM130.122 295.282C130.816 295.282 131.353 295.013 131.734 294.476C132.133 293.921 132.332 293.133 132.332 292.11C132.332 291.087 132.133 290.307 131.734 289.77C131.353 289.215 130.816 288.938 130.122 288.938C129.429 288.938 128.874 289.215 128.458 289.77C128.06 290.325 127.86 291.105 127.86 292.11C127.86 293.115 128.06 293.895 128.458 294.45C128.874 295.005 129.429 295.282 130.122 295.282ZM142.03 305.682C141.181 305.682 140.427 305.474 139.768 305.058C139.11 304.642 138.598 304.061 138.234 303.316C137.87 302.571 137.688 301.695 137.688 300.69C137.688 299.685 137.87 298.809 138.234 298.064C138.598 297.319 139.11 296.738 139.768 296.322C140.427 295.906 141.181 295.698 142.03 295.698C142.914 295.698 143.677 295.906 144.318 296.322C144.977 296.738 145.488 297.319 145.852 298.064C146.216 298.809 146.398 299.685 146.398 300.69C146.398 301.695 146.216 302.571 145.852 303.316C145.488 304.061 144.977 304.642 144.318 305.058C143.677 305.474 142.914 305.682 142.03 305.682ZM142.03 303.862C142.724 303.862 143.27 303.585 143.668 303.03C144.067 302.475 144.266 301.695 144.266 300.69C144.266 299.685 144.067 298.905 143.668 298.35C143.27 297.795 142.724 297.518 142.03 297.518C141.354 297.518 140.808 297.795 140.392 298.35C139.994 298.887 139.794 299.667 139.794 300.69C139.794 301.713 139.994 302.501 140.392 303.056C140.808 303.593 141.354 303.862 142.03 303.862Z" fill="white"/>
<path d="M351.026 418.459V472.015C310.836 482.461 268.127 485.15 226.389 479.862C184.651 474.573 145.07 461.458 110.883 441.587V388.031C145.07 407.902 184.651 421.018 226.389 426.307C268.127 431.595 310.836 428.906 351.026 418.459Z" fill="#CB5A09" stroke="#BF7300"/>
<path d="M268.278 214.723L351.026 418.46C310.836 428.906 268.127 431.596 226.389 426.307C184.651 421.019 145.07 407.903 110.883 388.032L268.278 214.723Z" fill="#FF6C02" stroke="#FF9900"/>
<path d="M222.556 371.5V354.6L224.038 356.134H218.708V353.3H225.936V371.5H222.556ZM235.578 371.76C234.296 371.76 233.039 371.578 231.808 371.214C230.595 370.833 229.572 370.313 228.74 369.654L230.17 367.028C230.829 367.565 231.626 367.999 232.562 368.328C233.516 368.657 234.504 368.822 235.526 368.822C236.722 368.822 237.658 368.571 238.334 368.068C239.028 367.565 239.374 366.889 239.374 366.04C239.374 365.468 239.227 364.965 238.932 364.532C238.655 364.099 238.152 363.769 237.424 363.544C236.714 363.319 235.734 363.206 234.486 363.206H230.092L231.028 353.3H241.714V356.134H232.276L234.044 354.522L233.342 361.932L231.574 360.346H235.24C237.043 360.346 238.49 360.589 239.582 361.074C240.692 361.542 241.498 362.201 242 363.05C242.52 363.882 242.78 364.835 242.78 365.91C242.78 366.967 242.52 367.938 242 368.822C241.48 369.706 240.683 370.417 239.608 370.954C238.551 371.491 237.208 371.76 235.578 371.76ZM247.024 371.5L259.452 353.3H262L249.572 371.5H247.024ZM248.532 363.102C247.683 363.102 246.929 362.894 246.27 362.478C245.611 362.062 245.1 361.481 244.736 360.736C244.372 359.991 244.19 359.115 244.19 358.11C244.19 357.105 244.372 356.229 244.736 355.484C245.1 354.739 245.611 354.158 246.27 353.742C246.929 353.326 247.683 353.118 248.532 353.118C249.416 353.118 250.179 353.326 250.82 353.742C251.479 354.158 251.99 354.739 252.354 355.484C252.718 356.229 252.9 357.105 252.9 358.11C252.9 359.115 252.718 359.991 252.354 360.736C251.99 361.481 251.479 362.062 250.82 362.478C250.179 362.894 249.416 363.102 248.532 363.102ZM248.558 361.282C249.251 361.282 249.789 361.013 250.17 360.476C250.569 359.921 250.768 359.133 250.768 358.11C250.768 357.087 250.569 356.307 250.17 355.77C249.789 355.215 249.251 354.938 248.558 354.938C247.865 354.938 247.31 355.215 246.894 355.77C246.495 356.325 246.296 357.105 246.296 358.11C246.296 359.115 246.495 359.895 246.894 360.45C247.31 361.005 247.865 361.282 248.558 361.282ZM260.466 371.682C259.617 371.682 258.863 371.474 258.204 371.058C257.545 370.642 257.034 370.061 256.67 369.316C256.306 368.571 256.124 367.695 256.124 366.69C256.124 365.685 256.306 364.809 256.67 364.064C257.034 363.319 257.545 362.738 258.204 362.322C258.863 361.906 259.617 361.698 260.466 361.698C261.35 361.698 262.113 361.906 262.754 362.322C263.413 362.738 263.924 363.319 264.288 364.064C264.652 364.809 264.834 365.685 264.834 366.69C264.834 367.695 264.652 368.571 264.288 369.316C263.924 370.061 263.413 370.642 262.754 371.058C262.113 371.474 261.35 371.682 260.466 371.682ZM260.466 369.862C261.159 369.862 261.705 369.585 262.104 369.03C262.503 368.475 262.702 367.695 262.702 366.69C262.702 365.685 262.503 364.905 262.104 364.35C261.705 363.795 261.159 363.518 260.466 363.518C259.79 363.518 259.244 363.795 258.828 364.35C258.429 364.887 258.23 365.667 258.23 366.69C258.23 367.713 258.429 368.501 258.828 369.056C259.244 369.593 259.79 369.862 260.466 369.862Z" fill="white"/>
</svg>
